<svg width="16" height="20" viewBox="0 0 16 20" fill="none" xmlns="http://www.w3.org/2000/svg">
<path d="M2.33322 17.0222C2.33322 17.4937 2.52053 17.9459 2.85392 18.2793C3.18732 18.6127 3.63951 18.8 4.111 18.8H11.2221C11.6936 18.8 12.1458 18.6127 12.4792 18.2793C12.8126 17.9459 12.9999 17.4937 12.9999 17.0222V6.35554H2.33322V17.0222ZM4.51989 10.6933L5.77322 9.43999L7.66656 11.3244L9.551 9.43999L10.8043 10.6933L8.91989 12.5778L10.8043 14.4622L9.551 15.7155L7.66656 13.8311L5.78211 15.7155L4.52878 14.4622L6.41323 12.5778L4.51989 10.6933ZM10.7777 3.68888L9.88878 2.79999H5.44434L4.55545 3.68888H1.44434V5.46665H13.8888V3.68888H10.7777Z" fill="#191919" fill-opacity="0.4"/>
</svg>
