<svg width="40" height="40" viewBox="0 0 40 40" fill="none" xmlns="http://www.w3.org/2000/svg">
<path d="M15.8617 25.9301L20 23.4201L24.1383 25.9301L23.0383 21.2218L26.6983 18.0801L21.8883 17.6534L20 13.2368L18.1117 17.6534L13.3017 18.0801L16.9617 21.2218L15.8617 25.9301ZM20 36.5268L15.1217 31.6668H8.33333V24.8784L3.475 20.0001L8.33333 15.1218V8.33343H15.1217L20 3.4751L24.8783 8.33343H31.6667V15.1218L36.5267 20.0001L31.6667 24.8784V31.6668H24.8783L20 36.5268ZM20 34.1668L24.1667 30.0001H30V24.1668L34.1667 20.0001L30 15.8334V10.0001H24.1667L20 5.83343L15.8333 10.0001H10V15.8334L5.83333 20.0001L10 24.1668V30.0001H15.8333L20 34.1668Z" fill="#191919"/>
</svg>
