<svg width="40" height="40" viewBox="0 0 40 40" fill="none" xmlns="http://www.w3.org/2000/svg">
<path d="M15.6417 4.16667V2.5H24.3583V4.16667H15.6417ZM20 35C18.1578 35 16.4283 34.6522 14.8117 33.9567C13.195 33.2611 11.7811 32.3078 10.57 31.0967C9.35889 29.8856 8.40556 28.4711 7.71001 26.8533C7.01445 25.2356 6.66667 23.5067 6.66667 21.6667C6.66667 19.8267 7.01445 18.0972 7.71001 16.4783C8.40556 14.8594 9.35889 13.4456 10.57 12.2367C11.7811 11.0278 13.1956 10.0744 14.8133 9.37667C16.4311 8.67889 18.16 8.33111 20 8.33333C21.6156 8.33333 23.1778 8.62222 24.6867 9.2C26.1956 9.77778 27.58 10.5939 28.84 11.6483L30.66 9.82667L31.84 11.0067L30.02 12.8267C31.0756 14.0878 31.8917 15.4728 32.4683 16.9817C33.045 18.4906 33.3333 20.0522 33.3333 21.6667C33.3333 23.5089 32.9856 25.2383 32.29 26.855C31.5945 28.4717 30.6411 29.8856 29.43 31.0967C28.2189 32.3078 26.8045 33.2611 25.1867 33.9567C23.5689 34.6522 21.84 35 20 35ZM20 33.3333C23.2222 33.3333 25.9722 32.1944 28.25 29.9167C30.5278 27.6389 31.6667 24.8889 31.6667 21.6667C31.6667 18.4444 30.5278 15.6944 28.25 13.4167C25.9722 11.1389 23.2222 10 20 10C16.7778 10 14.0278 11.1389 11.75 13.4167C9.47223 15.6944 8.33334 18.4444 8.33334 21.6667C8.33334 24.8889 9.47223 27.6389 11.75 29.9167C14.0278 32.1944 16.7778 33.3333 20 33.3333ZM17.3067 26.795L25 21.6667L17.3083 16.5383L17.3067 26.795Z" fill="#191919"/>
</svg>
