<svg width="40" height="40" viewBox="0 0 40 40" fill="none" xmlns="http://www.w3.org/2000/svg">
<path d="M29.4933 24.1102L28.295 22.9102C28.735 22.5402 29.0933 22.1057 29.37 21.6068C29.6478 21.1079 29.7867 20.5724 29.7867 20.0002C29.7867 19.4279 29.6478 18.8924 29.37 18.3935C29.0922 17.8946 28.7339 17.4602 28.295 17.0902L29.495 15.8902C30.0906 16.4235 30.5656 17.0407 30.92 17.7418C31.2744 18.4429 31.4522 19.1957 31.4533 20.0002C31.4544 20.8046 31.2767 21.5574 30.92 22.2585C30.5633 22.9596 30.0878 23.5779 29.4933 24.1102ZM33.0633 27.6802L31.885 26.5002C32.7461 25.6391 33.4072 24.6479 33.8683 23.5268C34.3306 22.4046 34.5617 21.2291 34.5617 20.0002C34.5617 18.7713 34.3306 17.5957 33.8683 16.4735C33.4061 15.3513 32.745 14.3602 31.885 13.5002L33.065 12.3202C34.0872 13.3379 34.87 14.5091 35.4133 15.8335C35.9567 17.1579 36.2283 18.5468 36.2283 20.0002C36.2283 21.4535 35.9567 22.8424 35.4133 24.1668C34.87 25.4913 34.0867 26.6624 33.0633 27.6802ZM12.695 36.6668C11.9483 36.6668 11.3128 36.4046 10.7883 35.8802C10.2639 35.3557 10.0011 34.7207 10 33.9752V6.02516C10 5.28072 10.2622 4.64572 10.7867 4.12016C11.3111 3.59572 11.9467 3.3335 12.6933 3.3335H27.3083C28.0528 3.3335 28.6878 3.59572 29.2133 4.12016C29.7378 4.64461 30 5.28016 30 6.02683V11.5385H28.3333V9.16683H11.6667V30.8335H28.3333V28.4618H30V33.9735C30 34.7202 29.7378 35.3557 29.2133 35.8802C28.6889 36.4046 28.0539 36.6668 27.3083 36.6668H12.695ZM11.6667 32.5002V33.9752C11.6667 34.2307 11.7733 34.4657 11.9867 34.6802C12.2 34.8946 12.435 35.0013 12.6917 35.0002H27.3083C27.5639 35.0002 27.7989 34.8935 28.0133 34.6802C28.2278 34.4668 28.3344 34.2313 28.3333 33.9735V32.5002H11.6667ZM11.6667 7.50016H28.3333V6.02516C28.3333 5.76961 28.2267 5.53461 28.0133 5.32016C27.8 5.10572 27.5644 4.99905 27.3067 5.00016H12.6933C12.4367 5.00016 12.2011 5.10683 11.9867 5.32016C11.7722 5.5335 11.6656 5.76905 11.6667 6.02683V7.50016Z" fill="#191919"/>
</svg>
