<svg width="16" height="17" viewBox="0 0 16 17" fill="none" xmlns="http://www.w3.org/2000/svg">
<path fill-rule="evenodd" clip-rule="evenodd" d="M15.2408 0.992288C15.7673 1.51879 15.7673 2.37242 15.2408 2.89892L2.29813 15.8415C1.77163 16.368 0.918004 16.368 0.391503 15.8415C-0.134997 15.315 -0.134997 14.4614 0.391503 13.9349L13.3341 0.992288C13.8606 0.465787 14.7143 0.465787 15.2408 0.992288Z" fill="white"/>
<path fill-rule="evenodd" clip-rule="evenodd" d="M0.391503 0.992288C0.918004 0.465787 1.77163 0.465787 2.29813 0.992288L15.2408 13.9349C15.7673 14.4614 15.7673 15.315 15.2408 15.8415C14.7143 16.368 13.8606 16.368 13.3341 15.8415L0.391503 2.89892C-0.134997 2.37242 -0.134997 1.51879 0.391503 0.992288Z" fill="white"/>
</svg>
