<svg width="41" height="40" viewBox="0 0 41 40" fill="none" xmlns="http://www.w3.org/2000/svg">
<path d="M5.0415 35V26.6667H6.70817V33.3333H13.3748V35H5.0415ZM5.0415 13.3333V5H13.3748V6.66667H6.70817V13.3333H5.0415ZM26.7082 35V33.3333H33.3748V26.6667H35.0415V35H26.7082ZM33.3748 13.3333V6.66667H26.7082V5H35.0415V13.3333H33.3748ZM20.0382 19.8083C18.8804 19.8083 17.8971 19.4039 17.0882 18.595C16.2793 17.7861 15.8748 16.8028 15.8748 15.645C15.8748 14.5094 16.2793 13.5306 17.0882 12.7083C17.8971 11.8861 18.8804 11.475 20.0382 11.475C21.1726 11.475 22.1515 11.8861 22.9748 12.7083C23.7971 13.5306 24.2082 14.5094 24.2082 15.645C24.2082 16.8028 23.7971 17.7861 22.9748 18.595C22.1526 19.4039 21.1737 19.8083 20.0382 19.8083ZM20.0415 18.1417C20.7271 18.1417 21.3154 17.9017 21.8065 17.4217C22.2965 16.9428 22.5415 16.3494 22.5415 15.6417C22.5415 14.955 22.2965 14.3667 21.8065 13.8767C21.3154 13.3867 20.7221 13.1417 20.0265 13.1417C19.3309 13.1417 18.7421 13.3867 18.2598 13.8767C17.7809 14.3667 17.5415 14.96 17.5415 15.6567C17.5415 16.3533 17.7809 16.9417 18.2598 17.4217C18.7387 17.9017 19.3326 18.1417 20.0415 18.1417ZM10.8748 28.525V26.1917C10.8748 25.745 10.9893 25.325 11.2182 24.9317C11.4471 24.5383 11.7565 24.2244 12.1465 23.99C13.3398 23.2833 14.6054 22.7511 15.9432 22.3933C17.2821 22.0378 18.6482 21.86 20.0415 21.86C21.4348 21.86 22.8009 22.0378 24.1398 22.3933C25.4787 22.7489 26.7443 23.2811 27.9365 23.99C28.3276 24.2233 28.6376 24.5372 28.8665 24.9317C29.0954 25.3261 29.2093 25.7467 29.2082 26.1933V28.5267L10.8748 28.525ZM20.0415 23.525C18.7959 23.525 17.5459 23.7067 16.2915 24.07C15.0371 24.4333 13.8065 24.9572 12.5998 25.6417V26.8917H27.4832V25.6083C26.2976 24.925 25.0721 24.4072 23.8065 24.055C22.5421 23.7028 21.2871 23.5267 20.0415 23.5267M20.0415 26.8917H27.4832H12.5998H20.0415Z" fill="#191919"/>
</svg>
