<svg width="149" height="39" viewBox="0 0 149 39" fill="none" xmlns="http://www.w3.org/2000/svg">
<path d="M50.2308 14.8946V22.9458H48.7157V14.8946H50.2308ZM52.7303 14.8946V16.0945H46.2439V14.8946H52.7303ZM54.5551 20.8611L56.7338 16.9627H58.1991V22.9458H56.7338V19.0418L54.5551 22.9458H53.0897V16.9627H54.5551V20.8611ZM63.5408 16.9627V18.1184H60.6156V16.9627H63.5408ZM61.0027 16.9627V22.9458H59.5373V16.9627H61.0027ZM64.6467 16.9627V22.9458H63.1758V16.9627H64.6467ZM65.714 20.0151V19.8989C65.714 19.4603 65.7766 19.0566 65.902 18.6879C66.0273 18.3156 66.2098 17.993 66.4494 17.7202C66.689 17.4475 66.9821 17.2355 67.3286 17.0843C67.6752 16.9295 68.0696 16.8521 68.512 16.8521C68.9617 16.8521 69.3599 16.9295 69.7064 17.0843C70.0566 17.2355 70.3515 17.4475 70.5911 17.7202C70.8308 17.993 71.0132 18.3156 71.1386 18.6879C71.2639 19.0566 71.3266 19.4603 71.3266 19.8989V20.0151C71.3266 20.4501 71.2639 20.8537 71.1386 21.2261C71.0132 21.5947 70.8308 21.9173 70.5911 22.1938C70.3515 22.4666 70.0585 22.6785 69.7119 22.8297C69.3654 22.9808 68.9691 23.0564 68.523 23.0564C68.0807 23.0564 67.6844 22.9808 67.3342 22.8297C66.9839 22.6785 66.689 22.4666 66.4494 22.1938C66.2098 21.9173 66.0273 21.5947 65.902 21.2261C65.7766 20.8537 65.714 20.4501 65.714 20.0151ZM67.1738 19.8989V20.0151C67.1738 20.2768 67.1996 20.522 67.2512 20.7505C67.3028 20.9791 67.3821 21.18 67.489 21.3533C67.5959 21.5265 67.7341 21.6629 67.9037 21.7624C68.077 21.8583 68.2834 21.9062 68.523 21.9062C68.759 21.9062 68.9617 21.8583 69.1313 21.7624C69.3009 21.6629 69.4391 21.5265 69.546 21.3533C69.6566 21.18 69.7377 20.9791 69.7893 20.7505C69.841 20.522 69.8668 20.2768 69.8668 20.0151V19.8989C69.8668 19.6409 69.841 19.3994 69.7893 19.1746C69.7377 18.946 69.6566 18.7451 69.546 18.5718C69.4391 18.3949 69.299 18.2566 69.1258 18.1571C68.9562 18.0539 68.7516 18.0023 68.512 18.0023C68.2761 18.0023 68.0733 18.0539 67.9037 18.1571C67.7341 18.2566 67.5959 18.3949 67.489 18.5718C67.3821 18.7451 67.3028 18.946 67.2512 19.1746C67.1996 19.3994 67.1738 19.6409 67.1738 19.8989ZM76.4084 16.9627V18.1184H73.8592V22.9458H72.3994V16.9627H76.4084ZM78.6037 18.1129V25.2461H77.1383V16.9627H78.4931L78.6037 18.1129ZM82.4468 19.8934V20.0095C82.4468 20.4445 82.3952 20.8482 82.292 21.2205C82.1924 21.5892 82.045 21.9117 81.8496 22.1882C81.6542 22.461 81.4109 22.6748 81.1197 22.8297C80.8321 22.9808 80.5003 23.0564 80.1243 23.0564C79.7557 23.0564 79.435 22.9864 79.1622 22.8463C78.8894 22.7025 78.659 22.4997 78.4709 22.238C78.2829 21.9763 78.1318 21.6721 78.0175 21.3256C77.9069 20.9754 77.824 20.5938 77.7687 20.181V19.8105C77.824 19.3718 77.9069 18.9736 78.0175 18.6161C78.1318 18.2548 78.2829 17.9433 78.4709 17.6815C78.659 17.4161 78.8875 17.2115 79.1566 17.0677C79.4294 16.924 79.7483 16.8521 80.1133 16.8521C80.493 16.8521 80.8266 16.924 81.1141 17.0677C81.4054 17.2115 81.6505 17.418 81.8496 17.6871C82.0487 17.9562 82.198 18.2769 82.2975 18.6492C82.397 19.0216 82.4468 19.4363 82.4468 19.8934ZM80.9814 20.0095V19.8934C80.9814 19.628 80.9575 19.3828 80.9095 19.158C80.8616 18.9294 80.7879 18.7303 80.6884 18.5608C80.5888 18.3875 80.4598 18.2529 80.3013 18.1571C80.1428 18.0612 79.9511 18.0133 79.7262 18.0133C79.5013 18.0133 79.3078 18.0502 79.1456 18.1239C78.9834 18.1976 78.8507 18.3027 78.7474 18.4391C78.6442 18.5755 78.5631 18.7377 78.5041 18.9257C78.4488 19.11 78.412 19.3146 78.3935 19.5395V20.4574C78.4267 20.7302 78.4912 20.9754 78.5871 21.1929C78.6829 21.4104 78.823 21.5837 79.0073 21.7127C79.1953 21.8417 79.4386 21.9062 79.7372 21.9062C79.9621 21.9062 80.1538 21.8565 80.3123 21.7569C80.4709 21.6574 80.5999 21.521 80.6994 21.3477C80.7989 21.1708 80.8708 20.968 80.9151 20.7395C80.9593 20.5109 80.9814 20.2676 80.9814 20.0095ZM86.8097 21.674V18.9147C86.8097 18.7119 86.7747 18.5368 86.7046 18.3893C86.6346 18.2419 86.5277 18.1276 86.3839 18.0465C86.2402 17.9654 86.0577 17.9248 85.8365 17.9248C85.6411 17.9248 85.4697 17.958 85.3222 18.0244C85.1785 18.0907 85.0679 18.1847 84.9904 18.3064C84.913 18.4244 84.8743 18.5608 84.8743 18.7156H83.409C83.409 18.4686 83.4679 18.2345 83.5859 18.0133C83.7039 17.7884 83.8716 17.5894 84.0891 17.4161C84.3103 17.2392 84.5739 17.1009 84.8799 17.0014C85.1895 16.9019 85.536 16.8521 85.9194 16.8521C86.3729 16.8521 86.7765 16.9295 87.1304 17.0843C87.488 17.2355 87.7682 17.464 87.9709 17.77C88.1774 18.076 88.2806 18.4612 88.2806 18.9257V21.5357C88.2806 21.8343 88.299 22.0905 88.3359 22.3044C88.3765 22.5145 88.4354 22.697 88.5129 22.8518V22.9458H87.0254C86.9553 22.7947 86.9019 22.603 86.865 22.3707C86.8281 22.1348 86.8097 21.9025 86.8097 21.674ZM87.0143 19.3017L87.0254 20.1699H86.1019C85.8734 20.1699 85.6724 20.1939 85.4992 20.2418C85.3259 20.286 85.184 20.3524 85.0734 20.4409C84.9628 20.5256 84.8799 20.6289 84.8246 20.7505C84.7693 20.8685 84.7416 21.003 84.7416 21.1542C84.7416 21.3016 84.7748 21.4344 84.8411 21.5523C84.9112 21.6703 85.0107 21.7643 85.1397 21.8343C85.2725 21.9007 85.4273 21.9339 85.6042 21.9339C85.8623 21.9339 86.0872 21.8823 86.2789 21.779C86.4706 21.6721 86.6199 21.5431 86.7268 21.392C86.8337 21.2408 86.8908 21.097 86.8982 20.9606L87.3184 21.591C87.2668 21.7422 87.1894 21.9025 87.0862 22.0721C86.983 22.2417 86.8503 22.4002 86.6881 22.5477C86.5259 22.6951 86.3305 22.8168 86.1019 22.9126C85.8734 23.0085 85.6079 23.0564 85.3056 23.0564C84.9186 23.0564 84.572 22.979 84.2661 22.8241C83.9601 22.6693 83.7186 22.4573 83.5417 22.1882C83.3647 21.9191 83.2762 21.6131 83.2762 21.2703C83.2762 20.9533 83.3352 20.6731 83.4532 20.4298C83.5712 20.1865 83.7463 19.9819 83.9785 19.816C84.2108 19.6464 84.4983 19.5192 84.8411 19.4345C85.1877 19.346 85.584 19.3017 86.03 19.3017H87.0143ZM96.7853 20.0095V20.1257C96.7853 20.5533 96.7373 20.9459 96.6415 21.3035C96.5493 21.6611 96.4092 21.9707 96.2212 22.2325C96.0369 22.4942 95.8084 22.697 95.5356 22.8407C95.2628 22.9845 94.9476 23.0564 94.59 23.0564C94.2693 23.0564 93.9891 22.9993 93.7495 22.885C93.5135 22.767 93.3145 22.603 93.1523 22.3928C92.9937 22.179 92.8647 21.9302 92.7652 21.6463C92.6693 21.3588 92.5974 21.0473 92.5495 20.7118V19.3626C92.5974 19.0013 92.6693 18.6695 92.7652 18.3672C92.861 18.0612 92.9901 17.7958 93.1523 17.5709C93.3145 17.3424 93.5117 17.1654 93.7439 17.0401C93.9799 16.9148 94.2582 16.8521 94.5789 16.8521C94.8701 16.8521 95.1319 16.9019 95.3641 17.0014C95.5964 17.1009 95.801 17.2447 95.9779 17.4327C96.1549 17.617 96.3023 17.8401 96.4203 18.1018C96.542 18.3598 96.6323 18.6511 96.6913 18.9755C96.7539 19.2962 96.7853 19.6409 96.7853 20.0095ZM95.3199 20.1257V20.0095C95.3199 19.792 95.307 19.5838 95.2812 19.3847C95.2554 19.1819 95.2148 18.9976 95.1595 18.8317C95.1042 18.6658 95.0324 18.5202 94.9439 18.3949C94.8554 18.2695 94.7485 18.1737 94.6232 18.1073C94.4978 18.0373 94.354 18.0023 94.1918 18.0023C93.9412 18.0023 93.7347 18.0483 93.5725 18.1405C93.414 18.2327 93.2942 18.3598 93.2131 18.5221C93.1357 18.6843 93.0896 18.8741 93.0748 19.0916V20.9883C93.0933 21.1726 93.143 21.333 93.2241 21.4694C93.3052 21.6058 93.4251 21.7127 93.5836 21.7901C93.7458 21.8675 93.9522 21.9062 94.2029 21.9062C94.4057 21.9062 94.5771 21.862 94.7172 21.7735C94.8609 21.6813 94.9771 21.556 95.0655 21.3975C95.154 21.2353 95.2185 21.0473 95.2591 20.8335C95.2996 20.616 95.3199 20.38 95.3199 20.1257ZM89.3534 20.1257V20.0095C89.3534 19.6409 89.3829 19.2962 89.4418 18.9755C89.5045 18.6511 89.5967 18.3598 89.7183 18.1018C89.84 17.8401 89.9893 17.617 90.1662 17.4327C90.3432 17.2447 90.5478 17.1009 90.78 17.0014C91.0123 16.9019 91.2722 16.8521 91.5597 16.8521C91.8804 16.8521 92.1569 16.9148 92.3892 17.0401C92.6214 17.1654 92.8168 17.3424 92.9753 17.5709C93.1338 17.7958 93.261 18.0612 93.3569 18.3672C93.4527 18.6695 93.5264 19.0013 93.578 19.3626V20.6565C93.5301 20.9994 93.4564 21.3182 93.3569 21.6131C93.261 21.9044 93.132 22.1587 92.9698 22.3762C92.8113 22.5937 92.6159 22.7615 92.3836 22.8794C92.1514 22.9974 91.8731 23.0564 91.5487 23.0564C91.1948 23.0564 90.8814 22.9845 90.6086 22.8407C90.3358 22.697 90.1054 22.4942 89.9174 22.2325C89.7331 21.9707 89.593 21.6611 89.4971 21.3035C89.4013 20.9459 89.3534 20.5533 89.3534 20.1257ZM90.8187 20.0095V20.1257C90.8187 20.38 90.8372 20.616 90.874 20.8335C90.9146 21.0473 90.9773 21.2353 91.062 21.3975C91.1505 21.556 91.2648 21.6813 91.4049 21.7735C91.545 21.862 91.7164 21.9062 91.9191 21.9062C92.1735 21.9062 92.3799 21.8657 92.5385 21.7846C92.697 21.6998 92.8168 21.5855 92.8979 21.4417C92.9827 21.2943 93.0325 21.1228 93.0472 20.9275V19.0916C93.0361 18.8741 92.9901 18.6843 92.909 18.5221C92.8279 18.3598 92.708 18.2327 92.5495 18.1405C92.391 18.0483 92.1846 18.0023 91.9302 18.0023C91.7274 18.0023 91.5542 18.0557 91.4104 18.1626C91.2703 18.2658 91.156 18.4096 91.0676 18.5939C90.9828 18.7783 90.9201 18.9921 90.8796 19.2354C90.839 19.4787 90.8187 19.7367 90.8187 20.0095ZM92.3173 25.2461V14.4522H93.7882V25.2461H92.3173ZM99.3455 20.8611L101.524 16.9627H102.99V22.9458H101.524V19.0418L99.3455 22.9458H97.8801V16.9627H99.3455V20.8611ZM105.589 19.9929H107.087L105.406 22.9458H103.908L105.589 19.9929ZM106.606 16.9627H109.205V22.9458H107.745V18.1018H106.606C106.374 18.1018 106.18 18.1442 106.025 18.229C105.874 18.3138 105.762 18.4225 105.688 18.5552C105.614 18.6843 105.577 18.817 105.577 18.9534C105.577 19.0861 105.612 19.2151 105.683 19.3404C105.753 19.4658 105.859 19.569 106.003 19.6501C106.151 19.7312 106.335 19.7718 106.556 19.7718H108.265V20.8003H106.556C106.177 20.8003 105.836 20.7542 105.533 20.662C105.235 20.5662 104.978 20.4335 104.765 20.2639C104.554 20.0943 104.394 19.8953 104.284 19.6667C104.173 19.4345 104.118 19.1819 104.118 18.9091C104.118 18.629 104.173 18.3709 104.284 18.135C104.398 17.899 104.562 17.6926 104.776 17.5156C104.993 17.3387 105.255 17.2023 105.561 17.1065C105.871 17.0106 106.219 16.9627 106.606 16.9627ZM121.005 21.7459L120.9 24.8867H119.485V22.9458H118.793V21.7459H121.005ZM113.507 22.9458V14.8946H115.028V21.7514H118.434V14.8946H119.96V22.9458H113.507ZM123.455 20.8611L125.634 16.9627H127.099V22.9458H125.634V19.0418L123.455 22.9458H121.99V16.9627H123.455V20.8611ZM135.615 20.0095V20.1257C135.615 20.5533 135.567 20.9459 135.471 21.3035C135.379 21.6611 135.239 21.9707 135.051 22.2325C134.866 22.4942 134.638 22.697 134.365 22.8407C134.092 22.9845 133.777 23.0564 133.419 23.0564C133.099 23.0564 132.819 22.9993 132.579 22.885C132.343 22.767 132.144 22.603 131.982 22.3928C131.823 22.179 131.694 21.9302 131.595 21.6463C131.499 21.3588 131.427 21.0473 131.379 20.7118V19.3626C131.427 19.0013 131.499 18.6695 131.595 18.3672C131.69 18.0612 131.82 17.7958 131.982 17.5709C132.144 17.3424 132.341 17.1654 132.573 17.0401C132.809 16.9148 133.088 16.8521 133.408 16.8521C133.7 16.8521 133.961 16.9019 134.194 17.0014C134.426 17.1009 134.63 17.2447 134.807 17.4327C134.984 17.617 135.132 17.8401 135.25 18.1018C135.371 18.3598 135.462 18.6511 135.521 18.9755C135.583 19.2962 135.615 19.6409 135.615 20.0095ZM134.149 20.1257V20.0095C134.149 19.792 134.136 19.5838 134.111 19.3847C134.085 19.1819 134.044 18.9976 133.989 18.8317C133.934 18.6658 133.862 18.5202 133.773 18.3949C133.685 18.2695 133.578 18.1737 133.453 18.1073C133.327 18.0373 133.184 18.0023 133.021 18.0023C132.771 18.0023 132.564 18.0483 132.402 18.1405C132.243 18.2327 132.124 18.3598 132.043 18.5221C131.965 18.6843 131.919 18.8741 131.904 19.0916V20.9883C131.923 21.1726 131.973 21.333 132.054 21.4694C132.135 21.6058 132.255 21.7127 132.413 21.7901C132.575 21.8675 132.782 21.9062 133.032 21.9062C133.235 21.9062 133.407 21.862 133.547 21.7735C133.69 21.6813 133.807 21.556 133.895 21.3975C133.983 21.2353 134.048 21.0473 134.089 20.8335C134.129 20.616 134.149 20.38 134.149 20.1257ZM128.183 20.1257V20.0095C128.183 19.6409 128.212 19.2962 128.271 18.9755C128.334 18.6511 128.426 18.3598 128.548 18.1018C128.669 17.8401 128.819 17.617 128.996 17.4327C129.173 17.2447 129.377 17.1009 129.609 17.0014C129.842 16.9019 130.102 16.8521 130.389 16.8521C130.71 16.8521 130.986 16.9148 131.219 17.0401C131.451 17.1654 131.646 17.3424 131.805 17.5709C131.963 17.7958 132.09 18.0612 132.186 18.3672C132.282 18.6695 132.356 19.0013 132.408 19.3626V20.6565C132.36 20.9994 132.286 21.3182 132.186 21.6131C132.09 21.9044 131.961 22.1587 131.799 22.3762C131.641 22.5937 131.445 22.7615 131.213 22.8794C130.981 22.9974 130.703 23.0564 130.378 23.0564C130.024 23.0564 129.711 22.9845 129.438 22.8407C129.165 22.697 128.935 22.4942 128.747 22.2325C128.563 21.9707 128.422 21.6611 128.327 21.3035C128.231 20.9459 128.183 20.5533 128.183 20.1257ZM129.648 20.0095V20.1257C129.648 20.38 129.667 20.616 129.703 20.8335C129.744 21.0473 129.807 21.2353 129.891 21.3975C129.98 21.556 130.094 21.6813 130.234 21.7735C130.374 21.862 130.546 21.9062 130.749 21.9062C131.003 21.9062 131.209 21.8657 131.368 21.7846C131.526 21.6998 131.646 21.5855 131.727 21.4417C131.812 21.2943 131.862 21.1228 131.877 20.9275V19.0916C131.866 18.8741 131.82 18.6843 131.738 18.5221C131.657 18.3598 131.537 18.2327 131.379 18.1405C131.22 18.0483 131.014 18.0023 130.76 18.0023C130.557 18.0023 130.384 18.0557 130.24 18.1626C130.1 18.2658 129.986 18.4096 129.897 18.5939C129.812 18.7783 129.75 18.9921 129.709 19.2354C129.668 19.4787 129.648 19.7367 129.648 20.0095ZM131.147 25.2461V14.4522H132.618V25.2461H131.147ZM138.158 18.1129V25.2461H136.693V16.9627H138.048L138.158 18.1129ZM142.002 19.8934V20.0095C142.002 20.4445 141.95 20.8482 141.847 21.2205C141.747 21.5892 141.6 21.9117 141.404 22.1882C141.209 22.461 140.966 22.6748 140.674 22.8297C140.387 22.9808 140.055 23.0564 139.679 23.0564C139.31 23.0564 138.99 22.9864 138.717 22.8463C138.444 22.7025 138.214 22.4997 138.026 22.238C137.838 21.9763 137.687 21.6721 137.572 21.3256C137.462 20.9754 137.379 20.5938 137.323 20.181V19.8105C137.379 19.3718 137.462 18.9736 137.572 18.6161C137.687 18.2548 137.838 17.9433 138.026 17.6815C138.214 17.4161 138.442 17.2115 138.711 17.0677C138.984 16.924 139.303 16.8521 139.668 16.8521C140.048 16.8521 140.381 16.924 140.669 17.0677C140.96 17.2115 141.205 17.418 141.404 17.6871C141.603 17.9562 141.753 18.2769 141.852 18.6492C141.952 19.0216 142.002 19.4363 142.002 19.8934ZM140.536 20.0095V19.8934C140.536 19.628 140.512 19.3828 140.464 19.158C140.416 18.9294 140.343 18.7303 140.243 18.5608C140.144 18.3875 140.015 18.2529 139.856 18.1571C139.697 18.0612 139.506 18.0133 139.281 18.0133C139.056 18.0133 138.862 18.0502 138.7 18.1239C138.538 18.1976 138.405 18.3027 138.302 18.4391C138.199 18.5755 138.118 18.7377 138.059 18.9257C138.004 19.11 137.967 19.3146 137.948 19.5395V20.4574C137.981 20.7302 138.046 20.9754 138.142 21.1929C138.238 21.4104 138.378 21.5837 138.562 21.7127C138.75 21.8417 138.993 21.9062 139.292 21.9062C139.517 21.9062 139.709 21.8565 139.867 21.7569C140.026 21.6574 140.155 21.521 140.254 21.3477C140.354 21.1708 140.426 20.968 140.47 20.7395C140.514 20.5109 140.536 20.2676 140.536 20.0095ZM146.364 21.674V18.9147C146.364 18.7119 146.329 18.5368 146.259 18.3893C146.189 18.2419 146.082 18.1276 145.939 18.0465C145.795 17.9654 145.612 17.9248 145.391 17.9248C145.196 17.9248 145.024 17.958 144.877 18.0244C144.733 18.0907 144.623 18.1847 144.545 18.3064C144.468 18.4244 144.429 18.5608 144.429 18.7156H142.964C142.964 18.4686 143.023 18.2345 143.141 18.0133C143.259 17.7884 143.426 17.5894 143.644 17.4161C143.865 17.2392 144.129 17.1009 144.435 17.0014C144.744 16.9019 145.091 16.8521 145.474 16.8521C145.928 16.8521 146.331 16.9295 146.685 17.0843C147.043 17.2355 147.323 17.464 147.526 17.77C147.732 18.076 147.835 18.4612 147.835 18.9257V21.5357C147.835 21.8343 147.854 22.0905 147.891 22.3044C147.931 22.5145 147.99 22.697 148.068 22.8518V22.9458H146.58C146.51 22.7947 146.457 22.603 146.42 22.3707C146.383 22.1348 146.364 21.9025 146.364 21.674ZM146.569 19.3017L146.58 20.1699H145.657C145.428 20.1699 145.227 20.1939 145.054 20.2418C144.881 20.286 144.739 20.3524 144.628 20.4409C144.518 20.5256 144.435 20.6289 144.379 20.7505C144.324 20.8685 144.296 21.003 144.296 21.1542C144.296 21.3016 144.329 21.4344 144.396 21.5523C144.466 21.6703 144.565 21.7643 144.694 21.8343C144.827 21.9007 144.982 21.9339 145.159 21.9339C145.417 21.9339 145.642 21.8823 145.834 21.779C146.025 21.6721 146.175 21.5431 146.281 21.392C146.388 21.2408 146.446 21.097 146.453 20.9606L146.873 21.591C146.822 21.7422 146.744 21.9025 146.641 22.0721C146.538 22.2417 146.405 22.4002 146.243 22.5477C146.081 22.6951 145.885 22.8168 145.657 22.9126C145.428 23.0085 145.163 23.0564 144.86 23.0564C144.473 23.0564 144.127 22.979 143.821 22.8241C143.515 22.6693 143.273 22.4573 143.096 22.1882C142.919 21.9191 142.831 21.6131 142.831 21.2703C142.831 20.9533 142.89 20.6731 143.008 20.4298C143.126 20.1865 143.301 19.9819 143.533 19.816C143.765 19.6464 144.053 19.5192 144.396 19.4345C144.742 19.346 145.139 19.3017 145.585 19.3017H146.569Z" fill="white"/>
<circle cx="20.1209" cy="19.4174" r="18.605" stroke="url(#paint0_linear_375_296)" stroke-width="1.61783"/>
<path d="M35.4903 19.417C35.4903 27.9052 28.6092 34.7863 20.1209 34.7863C11.6327 34.7863 4.75156 27.9052 4.75156 19.417C4.75156 10.9287 11.6327 4.04761 20.1209 4.04761C28.6092 4.04761 35.4903 10.9287 35.4903 19.417Z" fill="white"/>
<path fill-rule="evenodd" clip-rule="evenodd" d="M13.1321 16.8575L16.1507 15.2232L13.1321 13.5889V16.8575Z" fill="#191919"/>
<path fill-rule="evenodd" clip-rule="evenodd" d="M16.1507 18.4918L13.1321 16.8575L16.1507 15.2231V18.4918Z" fill="#191919"/>
<path fill-rule="evenodd" clip-rule="evenodd" d="M16.1507 21.7726L13.1321 20.1383L16.1507 18.4919V21.7726Z" fill="#191919"/>
<path fill-rule="evenodd" clip-rule="evenodd" d="M16.1507 25.0531L13.1321 23.4068L16.1507 21.7725V25.0531Z" fill="#191919"/>
<path fill-rule="evenodd" clip-rule="evenodd" d="M13.1321 20.1381L16.1507 18.4918L13.1321 16.8574V20.1381Z" fill="#191919"/>
<path fill-rule="evenodd" clip-rule="evenodd" d="M13.1321 23.4069L16.1507 21.7725L13.1321 20.1382V23.4069Z" fill="#191919"/>
<path fill-rule="evenodd" clip-rule="evenodd" d="M16.1508 25.0531L19.1818 23.4068L16.1508 21.7725V25.0531Z" fill="#191919"/>
<path fill-rule="evenodd" clip-rule="evenodd" d="M19.1818 26.6874L22.2129 25.0531L19.1818 23.4067V26.6874Z" fill="#191919"/>
<path fill-rule="evenodd" clip-rule="evenodd" d="M22.2129 25.0531L25.2439 23.4068L22.2129 21.7725V25.0531Z" fill="#191919"/>
<path fill-rule="evenodd" clip-rule="evenodd" d="M22.1259 18.4918L25.157 16.8575L22.1259 15.2231V18.4918Z" fill="#191919"/>
<path fill-rule="evenodd" clip-rule="evenodd" d="M25.157 16.8575L22.1259 15.2232L25.157 13.5889V16.8575Z" fill="#191919"/>
<path fill-rule="evenodd" clip-rule="evenodd" d="M22.2129 25.0531L19.1818 23.4068L22.2129 21.7725V25.0531Z" fill="#191919"/>
<path fill-rule="evenodd" clip-rule="evenodd" d="M25.157 20.1381L22.1259 18.4918L25.157 16.8574V20.1381Z" fill="#191919"/>
<path fill-rule="evenodd" clip-rule="evenodd" d="M19.1818 26.6874L16.1508 25.0531L19.1818 23.4067V26.6874Z" fill="#191919"/>
<path fill-rule="evenodd" clip-rule="evenodd" d="M25.2439 26.6874L22.2129 25.0531L25.2439 23.4067V26.6874Z" fill="#191919"/>
<path fill-rule="evenodd" clip-rule="evenodd" d="M25.2439 26.6874L28.275 25.0531L25.2439 23.4067V26.6874Z" fill="#191919"/>
<path fill-rule="evenodd" clip-rule="evenodd" d="M25.5421 13V16.8335V20.5348L21.9023 18.624V15.0549L25.5421 13ZM12.834 13.1322L16.4737 14.9828V18.4798V21.7124L19.2315 23.1545L22.2874 21.5082L25.3433 23.1545L28.834 25.0773L25.3433 27L22.2874 25.3536L19.2315 27L16.1756 25.3536L12.8961 23.6112L12.834 20.1382V16.8335V13.1322Z" fill="#191919"/>
<path fill-rule="evenodd" clip-rule="evenodd" d="M13.1321 16.8335L16.1756 15.1871L13.1321 13.5408V16.8335Z" fill="#191919"/>
<path fill-rule="evenodd" clip-rule="evenodd" d="M16.1756 18.4917L13.1321 16.8334L16.1756 15.187V18.4917Z" fill="#191919"/>
<path fill-rule="evenodd" clip-rule="evenodd" d="M16.1756 21.7846L13.1321 20.1383L16.1756 18.4919V21.7846Z" fill="#191919"/>
<path fill-rule="evenodd" clip-rule="evenodd" d="M16.1756 25.0891L13.1321 23.4308L16.1756 21.7844V25.0891Z" fill="#191919"/>
<path fill-rule="evenodd" clip-rule="evenodd" d="M13.1321 20.1382L16.1756 18.4919L13.1321 16.8335V20.1382Z" fill="#191919"/>
<path fill-rule="evenodd" clip-rule="evenodd" d="M13.1321 23.4309L16.1756 21.7845L13.1321 20.1382V23.4309Z" fill="#191919"/>
<path fill-rule="evenodd" clip-rule="evenodd" d="M16.1756 25.0891L19.2315 23.4308L16.1756 21.7844V25.0891Z" fill="#191919"/>
<path fill-rule="evenodd" clip-rule="evenodd" d="M19.2315 26.7356L22.2874 25.0893L19.2315 23.4309V26.7356Z" fill="#191919"/>
<path fill-rule="evenodd" clip-rule="evenodd" d="M22.2874 25.0891L25.3309 23.4308L22.2874 21.7844V25.0891Z" fill="#191919"/>
<path fill-rule="evenodd" clip-rule="evenodd" d="M22.188 18.4917L25.2439 16.8334L22.188 15.187V18.4917Z" fill="#191919"/>
<path fill-rule="evenodd" clip-rule="evenodd" d="M25.2439 16.8335L22.188 15.1871L25.2439 13.5408V16.8335Z" fill="#191919"/>
<path fill-rule="evenodd" clip-rule="evenodd" d="M22.2874 25.0891L19.2315 23.4308L22.2874 21.7844V25.0891Z" fill="#191919"/>
<path fill-rule="evenodd" clip-rule="evenodd" d="M25.2439 20.1382L22.188 18.4919L25.2439 16.8335V20.1382Z" fill="#191919"/>
<path fill-rule="evenodd" clip-rule="evenodd" d="M19.2315 26.7356L16.1756 25.0893L19.2315 23.4309V26.7356Z" fill="#191919"/>
<path fill-rule="evenodd" clip-rule="evenodd" d="M25.3309 26.7356L22.2874 25.0893L25.3309 23.4309V26.7356Z" fill="#191919"/>
<path fill-rule="evenodd" clip-rule="evenodd" d="M25.3309 26.7356L28.3868 25.0893L25.3309 23.4309V26.7356Z" fill="#191919"/>
<path fill-rule="evenodd" clip-rule="evenodd" d="M13.1321 16.8335L16.1756 15.1871L13.1321 13.5408V16.8335Z" fill="#114D29"/>
<path fill-rule="evenodd" clip-rule="evenodd" d="M16.1756 18.4917L13.1321 16.8334L16.1756 15.187V18.4917Z" fill="#007337"/>
<path fill-rule="evenodd" clip-rule="evenodd" d="M16.1756 21.7846L13.1321 20.1383L16.1756 18.4919V21.7846Z" fill="#00AF51"/>
<path fill-rule="evenodd" clip-rule="evenodd" d="M16.1756 25.0891L13.1321 23.4308L16.1756 21.7844V25.0891Z" fill="#114D29"/>
<path fill-rule="evenodd" clip-rule="evenodd" d="M13.1321 20.1382L16.1756 18.4919L13.1321 16.8335V20.1382Z" fill="#009646"/>
<path fill-rule="evenodd" clip-rule="evenodd" d="M13.1321 23.4309L16.1756 21.7845L13.1321 20.1382V23.4309Z" fill="#5EBF1B"/>
<path fill-rule="evenodd" clip-rule="evenodd" d="M16.1756 25.0891L19.2315 23.4308L16.1756 21.7844V25.0891Z" fill="#007337"/>
<path fill-rule="evenodd" clip-rule="evenodd" d="M19.2315 26.7356L22.2874 25.0893L19.2315 23.4309V26.7356Z" fill="#00AF51"/>
<path fill-rule="evenodd" clip-rule="evenodd" d="M22.2874 25.0891L25.3309 23.4308L22.2874 21.7844V25.0891Z" fill="#8DD404"/>
<path fill-rule="evenodd" clip-rule="evenodd" d="M22.188 18.4917L25.2439 16.8334L22.188 15.187V18.4917Z" fill="#B8E85C"/>
<path fill-rule="evenodd" clip-rule="evenodd" d="M25.2439 16.8335L22.188 15.1871L25.2439 13.5408V16.8335Z" fill="#D7EC9E"/>
<path fill-rule="evenodd" clip-rule="evenodd" d="M22.2874 25.0891L19.2315 23.4308L22.2874 21.7844V25.0891Z" fill="#5EBF1B"/>
<path fill-rule="evenodd" clip-rule="evenodd" d="M25.2439 20.1382L22.188 18.4919L25.2439 16.8335V20.1382Z" fill="#8DD404"/>
<path fill-rule="evenodd" clip-rule="evenodd" d="M19.2315 26.7356L16.1756 25.0893L19.2315 23.4309V26.7356Z" fill="#009646"/>
<path fill-rule="evenodd" clip-rule="evenodd" d="M25.3309 26.7356L22.2874 25.0893L25.3309 23.4309V26.7356Z" fill="#B8E85C"/>
<path fill-rule="evenodd" clip-rule="evenodd" d="M25.3309 26.7356L28.3868 25.0893L25.3309 23.4309V26.7356Z" fill="#D7EC9E"/>
<defs>
<linearGradient id="paint0_linear_375_296" x1="39.5349" y1="19.4174" x2="0.707001" y2="19.4174" gradientUnits="userSpaceOnUse">
<stop stop-color="#5EBF1B"/>
<stop offset="1" stop-color="#00E0E4"/>
</linearGradient>
</defs>
</svg>
