<svg width="180" height="55" viewBox="0 0 180 55" fill="none" xmlns="http://www.w3.org/2000/svg">
<g clip-path="url(#clip0_323_11)">
<path fill-rule="evenodd" clip-rule="evenodd" d="M0.829926 11.1248L9.2331 6.41154L0.829926 1.69824V11.1248Z" fill="#191919"/>
<path fill-rule="evenodd" clip-rule="evenodd" d="M9.2331 15.8381L0.829926 11.1248L9.2331 6.4115V15.8381Z" fill="#191919"/>
<path fill-rule="evenodd" clip-rule="evenodd" d="M9.2331 25.2993L0.829926 20.586L9.2331 15.838V25.2993Z" fill="#191919"/>
<path fill-rule="evenodd" clip-rule="evenodd" d="M9.2331 34.7606L0.829926 30.0126L9.2331 25.2993V34.7606Z" fill="#191919"/>
<path fill-rule="evenodd" clip-rule="evenodd" d="M0.829926 20.586L9.2331 15.8381L0.829926 11.1248V20.586Z" fill="#191919"/>
<path fill-rule="evenodd" clip-rule="evenodd" d="M0.829926 30.0127L9.2331 25.2994L0.829926 20.5861V30.0127Z" fill="#191919"/>
<path fill-rule="evenodd" clip-rule="evenodd" d="M9.23312 34.7606L17.6709 30.0126L9.23312 25.2993V34.7606Z" fill="#191919"/>
<path fill-rule="evenodd" clip-rule="evenodd" d="M17.6709 39.4738L26.1086 34.7605L17.6709 30.0126V39.4738Z" fill="#191919"/>
<path fill-rule="evenodd" clip-rule="evenodd" d="M26.1086 34.7606L34.5464 30.0126L26.1086 25.2993V34.7606Z" fill="#191919"/>
<path fill-rule="evenodd" clip-rule="evenodd" d="M25.8665 15.8381L34.3043 11.1248L25.8665 6.4115V15.8381Z" fill="#191919"/>
<path fill-rule="evenodd" clip-rule="evenodd" d="M34.3043 11.1248L25.8665 6.41154L34.3043 1.69824V11.1248Z" fill="#191919"/>
<path fill-rule="evenodd" clip-rule="evenodd" d="M26.1086 34.7606L17.6709 30.0126L26.1086 25.2993V34.7606Z" fill="#191919"/>
<path fill-rule="evenodd" clip-rule="evenodd" d="M34.3043 20.586L25.8665 15.8381L34.3043 11.1248V20.586Z" fill="#191919"/>
<path fill-rule="evenodd" clip-rule="evenodd" d="M17.6709 39.4738L9.23312 34.7605L17.6709 30.0126V39.4738Z" fill="#191919"/>
<path fill-rule="evenodd" clip-rule="evenodd" d="M34.5464 39.4738L26.1086 34.7605L34.5464 30.0126V39.4738Z" fill="#191919"/>
<path fill-rule="evenodd" clip-rule="evenodd" d="M34.5464 39.4738L42.9841 34.7605L34.5464 30.0126V39.4738Z" fill="#191919"/>
<path fill-rule="evenodd" clip-rule="evenodd" d="M35.3763 0V11.0555V21.7297L25.2441 16.2193V5.92628L35.3763 0ZM0 0.381222L10.1322 5.71834V15.8034V25.126L17.8092 29.2848L26.3161 24.5369L34.823 29.2848L44.5403 34.8299L34.823 40.3749L26.3161 35.627L17.8092 40.3749L9.30228 35.627L0.172905 30.6018L0 20.586V11.0555V0.381222Z" fill="#191919"/>
<path fill-rule="evenodd" clip-rule="evenodd" d="M0.829926 11.0555L9.30226 6.30752L0.829926 1.55957V11.0555Z" fill="#191919"/>
<path fill-rule="evenodd" clip-rule="evenodd" d="M9.30226 15.8381L0.829926 11.0554L9.30226 6.3075V15.8381Z" fill="#191919"/>
<path fill-rule="evenodd" clip-rule="evenodd" d="M9.30226 25.3339L0.829926 20.586L9.30226 15.838V25.3339Z" fill="#191919"/>
<path fill-rule="evenodd" clip-rule="evenodd" d="M9.30226 34.8645L0.829926 30.0819L9.30226 25.334V34.8645Z" fill="#191919"/>
<path fill-rule="evenodd" clip-rule="evenodd" d="M0.829926 20.586L9.30226 15.838L0.829926 11.0554V20.586Z" fill="#191919"/>
<path fill-rule="evenodd" clip-rule="evenodd" d="M0.829926 30.082L9.30226 25.334L0.829926 20.5861V30.082Z" fill="#191919"/>
<path fill-rule="evenodd" clip-rule="evenodd" d="M9.30228 34.8645L17.8092 30.0819L9.30228 25.334V34.8645Z" fill="#191919"/>
<path fill-rule="evenodd" clip-rule="evenodd" d="M17.8092 39.6125L26.3161 34.8645L17.8092 30.0819V39.6125Z" fill="#191919"/>
<path fill-rule="evenodd" clip-rule="evenodd" d="M26.3161 34.8645L34.7884 30.0819L26.3161 25.334V34.8645Z" fill="#191919"/>
<path fill-rule="evenodd" clip-rule="evenodd" d="M26.0395 15.8381L34.5464 11.0554L26.0395 6.3075V15.8381Z" fill="#191919"/>
<path fill-rule="evenodd" clip-rule="evenodd" d="M34.5464 11.0555L26.0395 6.30752L34.5464 1.55957V11.0555Z" fill="#191919"/>
<path fill-rule="evenodd" clip-rule="evenodd" d="M26.3161 34.8645L17.8092 30.0819L26.3161 25.334V34.8645Z" fill="#191919"/>
<path fill-rule="evenodd" clip-rule="evenodd" d="M34.5464 20.586L26.0395 15.838L34.5464 11.0554V20.586Z" fill="#191919"/>
<path fill-rule="evenodd" clip-rule="evenodd" d="M17.8092 39.6125L9.30228 34.8645L17.8092 30.0819V39.6125Z" fill="#191919"/>
<path fill-rule="evenodd" clip-rule="evenodd" d="M34.7884 39.6125L26.3161 34.8645L34.7884 30.0819V39.6125Z" fill="#191919"/>
<path fill-rule="evenodd" clip-rule="evenodd" d="M34.7885 39.6125L43.2954 34.8645L34.7885 30.0819V39.6125Z" fill="#191919"/>
<path fill-rule="evenodd" clip-rule="evenodd" d="M0.829926 11.0555L9.30226 6.30752L0.829926 1.55957V11.0555Z" fill="#114D29"/>
<path fill-rule="evenodd" clip-rule="evenodd" d="M9.30226 15.8381L0.829926 11.0554L9.30226 6.3075V15.8381Z" fill="#007337"/>
<path fill-rule="evenodd" clip-rule="evenodd" d="M9.30226 25.3339L0.829926 20.586L9.30226 15.838V25.3339Z" fill="#00AF51"/>
<path fill-rule="evenodd" clip-rule="evenodd" d="M9.30226 34.8645L0.829926 30.0819L9.30226 25.334V34.8645Z" fill="#114D29"/>
<path fill-rule="evenodd" clip-rule="evenodd" d="M0.829926 20.586L9.30226 15.838L0.829926 11.0554V20.586Z" fill="#009646"/>
<path fill-rule="evenodd" clip-rule="evenodd" d="M0.829926 30.082L9.30226 25.334L0.829926 20.5861V30.082Z" fill="#5EBF1B"/>
<path fill-rule="evenodd" clip-rule="evenodd" d="M9.30228 34.8645L17.8092 30.0819L9.30228 25.334V34.8645Z" fill="#007337"/>
<path fill-rule="evenodd" clip-rule="evenodd" d="M17.8092 39.6125L26.3161 34.8645L17.8092 30.0819V39.6125Z" fill="#00AF51"/>
<path fill-rule="evenodd" clip-rule="evenodd" d="M26.3161 34.8645L34.7884 30.0819L26.3161 25.334V34.8645Z" fill="#8DD404"/>
<path fill-rule="evenodd" clip-rule="evenodd" d="M26.0395 15.8381L34.5464 11.0554L26.0395 6.3075V15.8381Z" fill="#B8E85C"/>
<path fill-rule="evenodd" clip-rule="evenodd" d="M34.5464 11.0555L26.0395 6.30752L34.5464 1.55957V11.0555Z" fill="#D7EC9E"/>
<path fill-rule="evenodd" clip-rule="evenodd" d="M26.3161 34.8645L17.8092 30.0819L26.3161 25.334V34.8645Z" fill="#5EBF1B"/>
<path fill-rule="evenodd" clip-rule="evenodd" d="M34.5464 20.586L26.0395 15.838L34.5464 11.0554V20.586Z" fill="#8DD404"/>
<path fill-rule="evenodd" clip-rule="evenodd" d="M17.8092 39.6125L9.30228 34.8645L17.8092 30.0819V39.6125Z" fill="#009646"/>
<path fill-rule="evenodd" clip-rule="evenodd" d="M34.7884 39.6125L26.3161 34.8645L34.7884 30.0819V39.6125Z" fill="#B8E85C"/>
<path fill-rule="evenodd" clip-rule="evenodd" d="M34.7885 39.6125L43.2954 34.8645L34.7885 30.0819V39.6125Z" fill="#D7EC9E"/>
<path fill-rule="evenodd" clip-rule="evenodd" d="M60.5513 17.2589L54.9492 14.0359L54.88 20.5167L60.5513 17.2589Z" fill="#007337"/>
<path fill-rule="evenodd" clip-rule="evenodd" d="M54.9491 13.3082L60.5512 10.1198L60.5858 16.6005L54.9491 13.3082Z" fill="#009646"/>
<path fill-rule="evenodd" clip-rule="evenodd" d="M76.7006 29.3195L74.6949 25.7845L78.7754 25.7499L76.7006 29.3195Z" fill="#5EBF1B"/>
<path fill-rule="evenodd" clip-rule="evenodd" d="M115.708 21.4871L117.748 17.9175L113.633 17.8828L115.708 21.4871Z" fill="#5EBF1B"/>
<path fill-rule="evenodd" clip-rule="evenodd" d="M118.544 17.9175L120.584 21.4871L116.469 21.5218L118.544 17.9175Z" fill="#8DD404"/>
<path fill-rule="evenodd" clip-rule="evenodd" d="M159.176 22.2148L161.078 25.5765L157.205 25.6112L159.176 22.2148Z" fill="#007337"/>
<path fill-rule="evenodd" clip-rule="evenodd" d="M161.735 25.6112L163.637 22.2495L159.799 22.2148L161.735 25.6112Z" fill="#009646"/>
<path fill-rule="evenodd" clip-rule="evenodd" d="M164.225 22.2495L166.162 25.6112L162.288 25.6459L164.225 22.2495Z" fill="#00AF51"/>
<path fill-rule="evenodd" clip-rule="evenodd" d="M166.819 25.6459L168.721 22.2495H164.847L166.819 25.6459Z" fill="#5EBF1B"/>
<path d="M169.205 50.8758V49.3163H168.237C168.029 49.3163 167.891 49.3163 167.787 49.3163C167.683 49.3163 167.58 49.3509 167.476 49.4202C167.372 49.4896 167.303 49.5589 167.234 49.6628C167.199 49.7668 167.165 49.8708 167.165 50.0094C167.165 50.148 167.165 50.2867 167.199 50.356C167.234 50.4599 167.303 50.5293 167.407 50.6332C167.511 50.7025 167.649 50.7719 167.787 50.8065C167.926 50.8412 168.098 50.8412 168.271 50.8412H169.205V50.8758ZM170 53.3018H169.24V51.465H168.34L166.923 53.3018H165.989L167.545 51.3957C167.13 51.2917 166.854 51.1184 166.681 50.8758C166.508 50.6332 166.404 50.356 166.404 49.9747C166.404 49.7322 166.473 49.5242 166.577 49.3509C166.681 49.1776 166.819 49.039 166.992 48.9351C167.165 48.8311 167.338 48.7618 167.58 48.7271C167.787 48.6925 168.029 48.6578 168.271 48.6578H170.035V53.3018H170ZM164.952 53.3018H164.191V49.8361L161.805 53.3018H161.113V48.6925H161.874V52.0888L164.225 48.6925H164.952V53.3018ZM159.557 53.3018H158.796V51.257H156.479V53.3018H155.718V48.6925H156.479V50.5639H158.796V48.6925H159.557V53.3018ZM153.436 52.1581V50.8758C153.194 50.8758 152.917 50.9105 152.606 50.9451C152.295 50.9798 152.018 51.0144 151.845 51.0838C151.638 51.1531 151.465 51.257 151.292 51.3957C151.154 51.5343 151.085 51.7076 151.085 51.9502C151.085 52.2274 151.154 52.4007 151.327 52.5393C151.5 52.678 151.742 52.7473 152.053 52.7473C152.33 52.7473 152.572 52.7126 152.779 52.574C153.021 52.4354 153.229 52.2967 153.436 52.1581ZM154.197 53.3018H153.436V52.8166C153.367 52.8512 153.263 52.9206 153.159 53.0245C153.056 53.0938 152.917 53.1632 152.814 53.2325C152.675 53.3018 152.537 53.3364 152.364 53.4058C152.191 53.4404 152.018 53.4751 151.776 53.4751C151.361 53.4751 151.015 53.3364 150.739 53.0592C150.462 52.7819 150.324 52.4354 150.324 52.0195C150.324 51.6729 150.393 51.3957 150.566 51.1877C150.704 50.9798 150.912 50.8065 151.188 50.6679C151.465 50.5639 151.811 50.4599 152.191 50.4253C152.572 50.3906 152.987 50.356 153.436 50.3213V50.2173C153.436 50.0441 153.402 49.8708 153.332 49.7668C153.263 49.6628 153.194 49.5589 153.056 49.4896C152.952 49.4202 152.814 49.3856 152.675 49.3509C152.537 49.3163 152.364 49.3163 152.191 49.3163C151.984 49.3163 151.776 49.3509 151.534 49.3856C151.292 49.4202 151.015 49.5242 150.773 49.6282H150.739V48.8311C150.877 48.7964 151.119 48.7618 151.396 48.6925C151.672 48.6578 151.949 48.6231 152.226 48.6231C152.537 48.6231 152.848 48.6578 153.056 48.6925C153.298 48.7618 153.505 48.8311 153.678 48.9697C153.851 49.1083 153.989 49.247 154.059 49.4549C154.162 49.6628 154.197 49.9054 154.197 50.2173V53.3018ZM149.113 53.3018H148.353V49.3856H146.036V53.3018H145.275V48.6925H149.113V53.3018ZM143.753 53.3018H142.993V49.6628L141.851 52.0195H141.264L140.122 49.6628V53.3018H139.396V48.6925H140.33L141.575 51.257L142.785 48.6925H143.753V53.3018ZM137.391 51.0144C137.391 50.4253 137.287 49.9747 137.045 49.6975C136.803 49.4202 136.491 49.2816 136.076 49.2816C135.661 49.2816 135.35 49.4202 135.108 49.6975C134.866 49.9747 134.762 50.4253 134.762 51.0144C134.762 51.6036 134.866 52.0195 135.108 52.3314C135.35 52.6433 135.661 52.7819 136.076 52.7819C136.491 52.7819 136.803 52.6433 137.045 52.3314C137.287 52.0195 137.391 51.569 137.391 51.0144ZM138.186 51.0144C138.186 51.7422 137.978 52.3661 137.598 52.7819C137.218 53.1978 136.699 53.4404 136.042 53.4404C135.385 53.4404 134.866 53.2325 134.486 52.7819C134.105 52.3314 133.898 51.7422 133.898 51.0144C133.898 50.252 134.105 49.6628 134.486 49.247C134.866 48.8311 135.385 48.5885 136.042 48.5885C136.699 48.5885 137.183 48.7964 137.598 49.247C138.013 49.6628 138.186 50.252 138.186 51.0144ZM133.448 53.3018H132.445L130.544 51.1877H130.129V53.3018H129.333V48.6925H130.094V50.6679C130.336 50.6679 130.544 50.6332 130.716 50.5293C130.889 50.4253 131.028 50.2867 131.131 50.0787C131.166 50.0094 131.201 49.9401 131.235 49.8361C131.27 49.7668 131.304 49.6628 131.339 49.5935C131.477 49.2816 131.65 49.039 131.892 48.9004C132.1 48.7618 132.411 48.6578 132.826 48.6578H133.172V49.3509H132.826C132.618 49.3509 132.445 49.3856 132.307 49.4896C132.203 49.5589 132.065 49.7322 131.961 49.9747C131.858 50.2173 131.719 50.4253 131.616 50.5639C131.477 50.7025 131.373 50.8065 131.235 50.8412L133.448 53.3018ZM124.042 50.8758V49.3163H123.074C122.867 49.3163 122.728 49.3163 122.624 49.3163C122.521 49.3163 122.417 49.3509 122.313 49.4202C122.209 49.4896 122.14 49.5589 122.071 49.6628C122.037 49.7668 122.002 49.8708 122.002 50.0094C122.002 50.148 122.002 50.2867 122.037 50.356C122.071 50.4599 122.14 50.5293 122.244 50.6332C122.348 50.7025 122.486 50.7719 122.624 50.8065C122.763 50.8412 122.936 50.8412 123.109 50.8412H124.042V50.8758ZM124.803 53.3018H124.042V51.465H123.143L121.725 53.3018H120.792L122.348 51.3957C121.933 51.2917 121.656 51.1184 121.483 50.8758C121.31 50.6332 121.207 50.356 121.207 49.9747C121.207 49.7322 121.276 49.5242 121.38 49.3509C121.483 49.1776 121.622 49.039 121.795 48.9351C121.967 48.8311 122.14 48.7618 122.382 48.7271C122.59 48.6925 122.832 48.6578 123.074 48.6578H124.838V53.3018H124.803ZM118.993 52.1581V50.8758C118.751 50.8758 118.475 50.9105 118.164 50.9451C117.852 50.9798 117.576 51.0144 117.403 51.0838C117.195 51.1531 117.022 51.257 116.849 51.3957C116.711 51.5343 116.642 51.7076 116.642 51.9502C116.642 52.2274 116.711 52.4007 116.884 52.5393C117.057 52.678 117.299 52.7473 117.61 52.7473C117.887 52.7473 118.129 52.7126 118.336 52.574C118.613 52.4354 118.821 52.2967 118.993 52.1581ZM119.789 53.3018H119.028V52.8166C118.959 52.8512 118.855 52.9206 118.751 53.0245C118.648 53.1285 118.509 53.1632 118.406 53.2325C118.267 53.3018 118.129 53.3364 117.956 53.4058C117.783 53.4404 117.61 53.4751 117.368 53.4751C116.953 53.4751 116.607 53.3364 116.331 53.0592C116.054 52.7819 115.916 52.4354 115.916 52.0195C115.916 51.6729 115.985 51.3957 116.158 51.1877C116.296 50.9798 116.504 50.8065 116.78 50.6679C117.057 50.5639 117.403 50.4599 117.783 50.4253C118.164 50.3906 118.578 50.356 119.028 50.3213V50.2173C119.028 50.0441 118.993 49.8708 118.924 49.7668C118.855 49.6628 118.786 49.5589 118.648 49.4896C118.544 49.4202 118.406 49.3856 118.267 49.3509C118.129 49.3163 117.956 49.3163 117.783 49.3163C117.576 49.3163 117.368 49.3509 117.126 49.3856C116.884 49.4202 116.607 49.5242 116.365 49.6282H116.331V48.8311C116.469 48.7964 116.711 48.7618 116.988 48.6925C117.264 48.6578 117.541 48.6231 117.818 48.6231C118.129 48.6231 118.44 48.6578 118.648 48.6925C118.89 48.7618 119.097 48.8311 119.27 48.9697C119.443 49.1083 119.581 49.247 119.651 49.4549C119.754 49.6628 119.789 49.9054 119.789 50.2173V53.3018ZM114.671 53.3018H113.91V51.257H111.593V53.3018H110.832V48.6925H111.593V50.5639H113.91V48.6925H114.671V53.3018ZM109.311 53.3018H108.55V51.257H106.233V53.3018H105.472V48.6925H106.233V50.5639H108.55V48.6925H109.311V53.3018ZM103.536 50.4946C103.536 50.0787 103.432 49.7668 103.225 49.5589C103.017 49.3509 102.706 49.247 102.291 49.247C101.876 49.247 101.565 49.3509 101.288 49.5935C101.046 49.8361 100.908 50.148 100.873 50.4946H103.536ZM104.297 51.0838H100.908C100.908 51.361 100.942 51.6036 101.046 51.8115C101.115 52.0195 101.253 52.1928 101.392 52.3314C101.53 52.47 101.703 52.574 101.91 52.6433C102.118 52.7126 102.325 52.7473 102.568 52.7473C102.879 52.7473 103.19 52.678 103.501 52.574C103.812 52.4354 104.054 52.3314 104.193 52.1928H104.227V53.0245C103.951 53.1285 103.709 53.2325 103.432 53.3018C103.155 53.3711 102.879 53.4058 102.568 53.4058C101.807 53.4058 101.219 53.1978 100.769 52.7819C100.354 52.3661 100.112 51.7769 100.112 51.0144C100.112 50.252 100.32 49.6628 100.735 49.2123C101.15 48.7618 101.703 48.5538 102.36 48.5538C102.982 48.5538 103.467 48.7271 103.778 49.1083C104.124 49.4549 104.297 49.9747 104.297 50.6679V51.0838ZM98.4178 51.9155C98.4178 51.7769 98.3832 51.6383 98.3486 51.5343C98.314 51.4303 98.2103 51.361 98.0374 51.257C97.9337 51.2224 97.8299 51.1877 97.6916 51.1877C97.5879 51.1877 97.4149 51.1877 97.1729 51.1877H96.17V52.7126H96.8962C97.2075 52.7126 97.4495 52.7126 97.5879 52.678C97.7608 52.678 97.8991 52.6087 98.0028 52.5393C98.1066 52.47 98.2103 52.4007 98.2795 52.2967C98.3832 52.1581 98.4178 52.0541 98.4178 51.9155ZM98.1757 49.8708C98.1757 49.7668 98.1757 49.6975 98.1066 49.5935C98.072 49.5242 98.0028 49.4549 97.8991 49.4202C97.7953 49.3856 97.657 49.3509 97.5187 49.3163C97.3804 49.3163 97.2075 49.3163 97 49.3163H96.2046V50.5639H97.1729C97.3804 50.5639 97.5187 50.5639 97.6224 50.5293C97.7262 50.5293 97.8299 50.4946 97.8991 50.4253C98.0028 50.356 98.072 50.2867 98.1066 50.1827C98.1757 50.1134 98.1757 50.0094 98.1757 49.8708ZM99.2132 51.9155C99.2132 52.1235 99.1786 52.3314 99.0748 52.5047C99.0057 52.678 98.8673 52.8166 98.6944 52.9206C98.5215 53.0592 98.3486 53.1632 98.1066 53.1978C97.8991 53.2325 97.6224 53.2671 97.2766 53.2671H95.3747V48.6578H97.1729C97.5187 48.6578 97.7608 48.6578 97.9337 48.6925C98.1066 48.7271 98.2795 48.7618 98.4178 48.8311C98.5907 48.9351 98.729 49.039 98.7982 49.1776C98.8673 49.3163 98.9019 49.4896 98.9019 49.6975C98.9019 49.9401 98.8328 50.1134 98.6944 50.2867C98.5561 50.4599 98.3832 50.5986 98.2103 50.6679V50.7025C98.487 50.7719 98.6944 50.9105 98.9019 51.0838C99.144 51.361 99.2132 51.6036 99.2132 51.9155ZM94.6139 49.3856H92.954V53.3018H92.1932V49.3856H90.5333V48.6925H94.6139V49.3856ZM90.1875 53.0245C89.8763 53.1632 89.5996 53.2671 89.3922 53.3364C89.1501 53.4057 88.9426 53.4058 88.7005 53.4058C88.3547 53.4058 88.0435 53.3711 87.7669 53.2671C87.4902 53.1632 87.2481 53.0245 87.0406 52.8166C86.8332 52.6086 86.6948 52.3661 86.5911 52.0541C86.4874 51.7422 86.4182 51.3957 86.4182 51.0144C86.4182 50.2867 86.6257 49.6975 87.0406 49.247C87.4556 48.7964 88.0089 48.5885 88.7005 48.5885C88.9772 48.5885 89.2193 48.6231 89.4613 48.6925C89.738 48.7618 89.9455 48.8657 90.1529 48.9697V49.8361H90.1184C89.8417 49.6282 89.5996 49.4896 89.3576 49.4202C89.1155 49.3163 88.8734 49.2816 88.6314 49.2816C88.1818 49.2816 87.8014 49.4202 87.5594 49.7322C87.3173 50.0441 87.179 50.4599 87.179 51.0144C87.179 51.569 87.3173 51.9848 87.5594 52.2967C87.8014 52.6086 88.1818 52.7473 88.6314 52.7473C88.8043 52.7473 88.9426 52.7473 89.1155 52.678C89.2884 52.6433 89.4267 52.574 89.5651 52.5047C89.6688 52.47 89.7726 52.4007 89.8763 52.3314C89.98 52.2621 90.0838 52.1928 90.1184 52.1581H90.1529V53.0245H90.1875ZM84.3433 52.6433V49.3509H82.9601C82.9255 50.0441 82.8218 50.6679 82.6489 51.2224C82.476 51.8115 82.2685 52.2621 82.0264 52.6433H84.3433ZM85.692 54.4108H84.9658V53.3018H81.5077V54.4108H80.7815V52.6433H81.2656C81.5769 52.1235 81.8189 51.4996 81.9918 50.8065C82.1647 50.1134 82.2339 49.4202 82.2339 48.6925H85.1387V52.6433H85.692V54.4108ZM79.502 51.0144C79.502 50.4253 79.3983 49.9747 79.1562 49.6975C78.9141 49.4202 78.6029 49.2816 78.1879 49.2816C77.773 49.2816 77.4617 49.4202 77.2197 49.6975C76.9776 49.9747 76.8739 50.4253 76.8739 51.0144C76.8739 51.6036 76.9776 52.0195 77.2197 52.3314C77.4617 52.6433 77.773 52.7819 78.1879 52.7819C78.6029 52.7819 78.9141 52.6433 79.1562 52.3314C79.3983 52.0195 79.502 51.569 79.502 51.0144ZM80.2974 51.0144C80.2974 51.7422 80.0899 52.3661 79.7095 52.7819C79.3291 53.1978 78.8104 53.4404 78.1533 53.4404C77.4963 53.4404 76.9776 53.2325 76.5972 52.7819C76.2168 52.3314 76.0093 51.7422 76.0093 51.0144C76.0093 50.252 76.2168 49.6628 76.5972 49.247C76.9776 48.8311 77.4963 48.5885 78.1533 48.5885C78.8104 48.5885 79.2945 48.7964 79.7095 49.247C80.1245 49.6628 80.2974 50.252 80.2974 51.0144ZM74.384 51.9155C74.384 51.7769 74.3494 51.6383 74.3149 51.5343C74.2803 51.4303 74.1765 51.361 74.0036 51.257C73.8999 51.2224 73.7961 51.1877 73.6578 51.1877C73.5541 51.1877 73.3812 51.1877 73.1391 51.1877H72.1363V52.7126H72.8625C73.1737 52.7126 73.4158 52.7126 73.5541 52.678C73.727 52.678 73.8653 52.6087 73.969 52.5393C74.0728 52.47 74.1765 52.4007 74.2457 52.2967C74.3494 52.1581 74.384 52.0541 74.384 51.9155ZM74.142 49.8708C74.142 49.7668 74.142 49.6975 74.0728 49.5935C74.0382 49.5242 73.9691 49.4549 73.8653 49.4202C73.7616 49.3856 73.6232 49.3509 73.4849 49.3163C73.3466 49.3163 73.1737 49.3163 72.9662 49.3163H72.1708V50.5639H73.1391C73.3466 50.5639 73.4849 50.5639 73.5887 50.5293C73.6924 50.5293 73.7962 50.4946 73.8653 50.4253C73.9691 50.356 74.0382 50.2867 74.0728 50.1827C74.1074 50.1134 74.142 50.0094 74.142 49.8708ZM75.1794 51.9155C75.1794 52.1235 75.1448 52.3314 75.0411 52.5047C74.9719 52.678 74.8336 52.8166 74.6607 52.9206C74.4878 53.0592 74.3149 53.1632 74.0728 53.1978C73.8653 53.2325 73.5887 53.2671 73.2429 53.2671H71.3409V48.6578H73.1391C73.4849 48.6578 73.727 48.6578 73.8999 48.6925C74.0728 48.7271 74.2457 48.7618 74.384 48.8311C74.5569 48.9351 74.6953 49.039 74.7644 49.1776C74.8336 49.3163 74.8682 49.4896 74.8682 49.6975C74.8682 49.9401 74.799 50.1134 74.6607 50.2867C74.5223 50.4599 74.3494 50.5986 74.1765 50.6679V50.7025C74.4532 50.7719 74.6607 50.9105 74.8336 51.0838C75.0756 51.361 75.1794 51.6036 75.1794 51.9155ZM70.1651 52.0195C70.1651 52.2621 70.096 52.5047 69.9922 52.678C69.8885 52.8512 69.7156 52.9899 69.5427 53.0938C69.3352 53.1978 69.1623 53.2671 68.9202 53.3364C68.7127 53.3711 68.4707 53.4058 68.2632 53.4058C67.952 53.4058 67.6407 53.3711 67.3641 53.3018C67.0874 53.2325 66.7762 53.1632 66.4996 53.0245V52.1581H66.5341C66.7416 52.3314 66.9837 52.47 67.2949 52.574C67.6062 52.678 67.9174 52.7126 68.194 52.7126C68.3324 52.7126 68.4707 52.7126 68.609 52.678C68.7473 52.6433 68.8857 52.6086 68.9894 52.574C69.0931 52.5047 69.1969 52.4354 69.266 52.3314C69.3352 52.2274 69.3698 52.1235 69.3698 51.9502C69.3698 51.7769 69.3352 51.6383 69.266 51.569C69.1969 51.465 69.1277 51.3957 68.9894 51.361C68.8857 51.3264 68.7473 51.2917 68.5744 51.2917C68.4015 51.2917 68.2632 51.2917 68.1595 51.2917H67.5024V50.5986H67.952C68.0557 50.5986 68.194 50.5986 68.3669 50.5986C68.5398 50.5986 68.6782 50.5639 68.7819 50.5293C68.9202 50.4946 69.024 50.4253 69.1277 50.3213C69.1969 50.252 69.266 50.1134 69.266 49.9054C69.266 49.7668 69.2315 49.6628 69.1623 49.5935C69.0931 49.5242 69.024 49.4549 68.9202 49.3856C68.8165 49.3509 68.7127 49.3163 68.5744 49.2816C68.4707 49.2816 68.3324 49.247 68.2632 49.247C67.9865 49.247 67.7099 49.2816 67.4333 49.3509C67.1566 49.4202 66.9491 49.5242 66.7416 49.6975H66.707V48.8311C66.9491 48.7618 67.1912 48.6925 67.4333 48.6578C67.7099 48.6231 67.952 48.5885 68.194 48.5885C68.4015 48.5885 68.609 48.5885 68.8511 48.6578C69.0586 48.6925 69.266 48.7618 69.4389 48.8657C69.6119 48.9697 69.7848 49.0737 69.8885 49.247C69.9922 49.4202 70.0614 49.5935 70.0614 49.8361C70.0614 50.0787 69.9922 50.2867 69.8539 50.4946C69.7156 50.6679 69.5081 50.8065 69.2315 50.8758V50.9105C69.5081 50.9798 69.7502 51.1184 69.8885 51.2917C70.0614 51.465 70.1651 51.7076 70.1651 52.0195ZM65.4276 53.3018H64.6668V49.8361L62.2807 53.3018H61.5891V48.6925H62.3498V52.0888L64.7014 48.6925H65.4276V53.3018ZM59.5488 51.0144C59.5488 50.4253 59.445 49.9747 59.203 49.6975C58.9609 49.4202 58.6497 49.2816 58.2347 49.2816C57.8197 49.2816 57.5085 49.4202 57.2664 49.6975C57.0244 49.9747 56.9206 50.4253 56.9206 51.0144C56.9206 51.6036 57.0244 52.0195 57.2664 52.3314C57.5085 52.6433 57.8197 52.7819 58.2347 52.7819C58.6497 52.7819 58.9609 52.6433 59.203 52.3314C59.445 52.0195 59.5488 51.569 59.5488 51.0144ZM60.3787 51.0144C60.3787 51.7422 60.1712 52.3661 59.7909 52.7819C59.4105 53.1978 58.8918 53.4404 58.2347 53.4404C57.5777 53.4404 57.059 53.2325 56.6786 52.7819C56.2982 52.3314 56.0907 51.7422 56.0907 51.0144C56.0907 50.252 56.2982 49.6628 56.6786 49.247C57.059 48.8311 57.5777 48.5885 58.2347 48.5885C58.8918 48.5885 59.3759 48.7964 59.7909 49.247C60.1712 49.6628 60.3787 50.252 60.3787 51.0144ZM54.4308 50.9798C54.4308 50.4253 54.3271 50.0094 54.1542 49.7322C53.9813 49.4549 53.67 49.3163 53.2896 49.3163C53.0476 49.3163 52.8401 49.3509 52.598 49.4549C52.356 49.5589 52.1485 49.6628 51.941 49.8361V52.4354C52.1485 52.5393 52.356 52.6086 52.4943 52.6433C52.6672 52.678 52.8401 52.678 53.0476 52.678C53.4625 52.678 53.8084 52.5393 54.0504 52.2274C54.3271 51.9848 54.4308 51.5343 54.4308 50.9798ZM55.2608 50.9451C55.2608 51.3264 55.2262 51.6729 55.0878 51.9502C54.9841 52.2621 54.8112 52.5393 54.6383 52.7473C54.4654 52.9552 54.2579 53.0938 53.9813 53.2325C53.7392 53.3364 53.4625 53.4058 53.1859 53.4058C52.9438 53.4058 52.7363 53.3711 52.5289 53.3364C52.3214 53.2671 52.1485 53.1978 51.941 53.0938V55.0346H51.1802V48.7271H51.941V49.2123C52.1485 49.039 52.3905 48.9004 52.6326 48.7964C52.8747 48.6925 53.1513 48.6231 53.4625 48.6231C54.0158 48.6231 54.4654 48.8311 54.7766 49.247C55.0878 49.6282 55.2608 50.2173 55.2608 50.9451ZM49.6932 53.3018H48.9324V49.3856H46.6155V53.3018H45.8547V48.6925H49.6932V53.3018ZM44.4369 50.9798H41.8779V50.252H44.4369V50.9798ZM40.0105 51.0144C40.0105 50.4253 39.9068 49.9747 39.6647 49.6975C39.4227 49.4202 39.1114 49.2816 38.6965 49.2816C38.2815 49.2816 37.9703 49.4202 37.7282 49.6975C37.4861 49.9747 37.3824 50.4253 37.3824 51.0144C37.3824 51.6036 37.4861 52.0195 37.7282 52.3314C37.9703 52.6433 38.2815 52.7819 38.6965 52.7819C39.1114 52.7819 39.4227 52.6433 39.6647 52.3314C39.8722 52.0195 40.0105 51.569 40.0105 51.0144ZM40.8059 51.0144C40.8059 51.7422 40.5984 52.3661 40.218 52.7819C39.8376 53.1978 39.3189 53.4404 38.6619 53.4404C38.0049 53.4404 37.4861 53.2325 37.1058 52.7819C36.7254 52.3314 36.5179 51.7422 36.5179 51.0144C36.5179 50.252 36.7254 49.6628 37.1058 49.247C37.4861 48.8311 38.0049 48.5885 38.6619 48.5885C39.3189 48.5885 39.8031 48.7964 40.218 49.247C40.5984 49.6628 40.8059 50.252 40.8059 51.0144ZM35.3767 53.3018H34.5813V51.257H32.2644V53.3018H31.5036V48.6925H32.2644V50.5639H34.5813V48.6925H35.3421V53.3018H35.3767ZM29.9821 53.3018H29.2213V49.6628L28.0801 52.0195H27.4922L26.3511 49.6628V53.3018H25.6249V48.6925H26.5586L27.8035 51.257L29.0138 48.6925H29.9821V53.3018ZM23.3771 52.1581V50.8758C23.135 50.8758 22.8584 50.9105 22.5472 50.9451C22.2359 50.9798 21.9593 51.0144 21.7864 51.0838C21.5789 51.1531 21.406 51.257 21.2331 51.3957C21.0948 51.5343 21.0256 51.7076 21.0256 51.9502C21.0256 52.2274 21.0948 52.4007 21.2677 52.5393C21.4406 52.678 21.6826 52.7473 21.9939 52.7473C22.2705 52.7473 22.5126 52.7126 22.7201 52.574C22.9967 52.4354 23.2042 52.2967 23.3771 52.1581ZM24.1725 53.3018H23.4117V52.8166C23.3425 52.8512 23.2388 52.9206 23.135 53.0245C23.0313 53.0938 22.893 53.1632 22.7892 53.2325C22.6509 53.3018 22.5126 53.3364 22.3397 53.4058C22.1668 53.4404 21.9939 53.4751 21.7518 53.4751C21.3368 53.4751 20.991 53.3364 20.7144 53.0592C20.4377 52.7819 20.2994 52.4354 20.2994 52.0195C20.2994 51.6729 20.3686 51.3957 20.5415 51.1877C20.6798 50.9798 20.8873 50.8065 21.1639 50.6679C21.4406 50.5639 21.7864 50.4599 22.1668 50.4253C22.5472 50.3906 22.9621 50.356 23.4117 50.3213V50.2173C23.4117 50.0441 23.3771 49.8708 23.3079 49.7668C23.2388 49.6628 23.1696 49.5589 23.0313 49.4896C22.9276 49.4202 22.7892 49.3856 22.6509 49.3509C22.5126 49.3163 22.3397 49.3163 22.1668 49.3163C21.9593 49.3163 21.7518 49.3509 21.5097 49.3856C21.2677 49.4202 20.991 49.5242 20.749 49.6282H20.7144V48.8311C20.8527 48.7964 21.0948 48.7618 21.3714 48.6925C21.6481 48.6578 21.9247 48.6231 22.2014 48.6231C22.5126 48.6231 22.8238 48.6578 23.0313 48.6925C23.2734 48.7618 23.4809 48.8311 23.6538 48.9697C23.8267 49.1083 23.965 49.247 24.0341 49.4549C24.1379 49.6628 24.1725 49.9054 24.1725 50.2173V53.3018ZM19.0545 53.3018H18.2937V49.3509H16.5647C16.5647 49.5935 16.5647 49.8015 16.5301 50.0094C16.5301 50.2173 16.5301 50.4253 16.4955 50.5986C16.4955 51.0491 16.4609 51.4303 16.3918 51.7076C16.3572 51.9848 16.288 52.1928 16.2189 52.4007C16.1497 52.574 16.0805 52.7126 16.0114 52.8166C15.9422 52.9206 15.8385 53.0245 15.7347 53.0938C15.631 53.1632 15.5272 53.2325 15.4235 53.2671C15.3197 53.3018 15.1814 53.3364 15.0431 53.3364C15.0085 53.3364 14.9394 53.3364 14.8356 53.3364C14.7319 53.3364 14.6973 53.3364 14.6627 53.3364V52.678H14.6973C14.7319 52.678 14.7319 52.678 14.801 52.678C14.8356 52.678 14.8702 52.678 14.9048 52.678C14.9739 52.678 15.0431 52.678 15.1123 52.6433C15.1814 52.6086 15.2506 52.574 15.2852 52.5393C15.4235 52.4007 15.5272 52.1581 15.631 51.8462C15.7001 51.5343 15.7693 51.0491 15.8039 50.4253C15.8039 50.2173 15.8385 49.9401 15.8385 49.6282C15.8385 49.3163 15.8385 49.0044 15.873 48.7271H19.0545V53.3018ZM14.5244 53.3018H13.5215L11.6196 51.1877H11.2046V53.3018H10.4438V48.6925H11.2046V50.6679C11.4467 50.6679 11.6542 50.6332 11.8271 50.5293C12 50.4253 12.1383 50.2867 12.242 50.0787C12.2766 50.0094 12.3112 49.9401 12.3458 49.8361C12.3804 49.7668 12.4149 49.6628 12.4495 49.5935C12.5879 49.2816 12.7608 49.039 13.0028 48.9004C13.2103 48.7618 13.5215 48.6578 13.9365 48.6578H14.2823V49.3509H13.9365C13.729 49.3509 13.5561 49.3856 13.4178 49.4896C13.3141 49.5589 13.1757 49.7322 13.072 49.9747C12.9682 50.2173 12.8299 50.4253 12.7262 50.5639C12.5879 50.7025 12.4841 50.8065 12.3458 50.8412L14.5244 53.3018ZM8.43814 50.4946C8.43814 50.0787 8.33439 49.7668 8.12691 49.5589C7.91942 49.3509 7.60819 49.247 7.19322 49.247C6.77825 49.247 6.46702 49.3509 6.19037 49.5935C5.94831 49.8361 5.80998 50.148 5.7754 50.4946H8.43814ZM9.19892 51.0838H5.80998C5.80998 51.361 5.84457 51.6036 5.94831 51.8115C6.01747 52.0195 6.15579 52.1928 6.29412 52.3314C6.43244 52.47 6.60535 52.574 6.81283 52.6433C7.02032 52.7126 7.2278 52.7473 7.46987 52.7473C7.7811 52.7473 8.09233 52.678 8.40356 52.574C8.71478 52.4354 8.95685 52.3314 9.06059 52.1928H9.09517V53.0245C8.81853 53.1285 8.57646 53.2325 8.29981 53.3018C8.02317 53.3711 7.74652 53.4058 7.43529 53.4058C6.67451 53.4058 6.08663 53.1978 5.63708 52.7819C5.22211 52.3661 4.98004 51.7769 4.98004 51.0144C4.98004 50.252 5.18753 49.6628 5.6025 49.2123C6.01747 48.7618 6.57077 48.5538 7.2278 48.5538C7.85026 48.5538 8.33439 48.7271 8.64562 49.1083C8.99143 49.4549 9.16434 49.9747 9.16434 50.6679V51.0838H9.19892ZM3.35474 50.9798C3.35474 50.4253 3.25099 50.0094 3.07809 49.7322C2.90518 49.4549 2.59395 49.3163 2.21356 49.3163C1.9715 49.3163 1.76401 49.3509 1.55653 49.4549C1.31446 49.5589 1.10697 49.6628 0.899488 49.8361V52.4354C1.10697 52.5393 1.31446 52.6086 1.45278 52.6433C1.62569 52.678 1.79859 52.678 2.00608 52.678C2.42105 52.678 2.76686 52.5393 3.00893 52.2274C3.21641 51.9848 3.35474 51.5343 3.35474 50.9798ZM4.1501 50.9451C4.1501 51.3264 4.11552 51.6729 3.97719 51.9502C3.87345 52.2621 3.70055 52.5393 3.52764 52.7473C3.35474 52.9552 3.14725 53.0938 2.8706 53.2325C2.62854 53.3364 2.35189 53.4058 2.07524 53.4058C1.83317 53.4058 1.62569 53.3711 1.4182 53.3364C1.21072 53.2671 1.03781 53.1978 0.830326 53.0938V55.0346H0.104126V48.7271H0.864907V49.2123C1.07239 49.039 1.31446 48.9004 1.55653 48.7964C1.79859 48.6925 2.07524 48.6231 2.38647 48.6231C2.93976 48.6231 3.38932 48.8311 3.70055 49.247C3.97719 49.6282 4.1501 50.2173 4.1501 50.9451Z" fill="#191919"/>
<path d="M60.3092 34.8299H58.1998V39.8205H57.1969V34.8299H55.0875V33.9635H60.3092V34.8299Z" fill="#191919"/>
<path d="M71.548 39.8205H70.5797V35.4191L67.5366 39.8205H66.6375V33.9635H67.6058V38.2956L70.6143 33.9635H71.548V39.8205Z" fill="#191919"/>
<path d="M83.6859 39.8205H82.7176V34.8299H79.7783V39.8205H78.7754V33.9635H83.6859V39.8205Z" fill="#191919"/>
<path d="M94.8902 36.9093C94.8902 36.1468 94.7518 35.5923 94.4406 35.2111C94.1294 34.8299 93.749 34.6566 93.1957 34.6566C92.6424 34.6566 92.262 34.8299 91.9508 35.2111C91.6741 35.5923 91.5012 36.1468 91.5012 36.9093C91.5012 37.637 91.6395 38.1916 91.9508 38.5728C92.262 38.954 92.677 39.1273 93.1957 39.1273C93.7144 39.1273 94.1294 38.954 94.406 38.5728C94.7518 38.1916 94.8902 37.637 94.8902 36.9093ZM95.893 36.9093C95.893 37.845 95.6509 38.6074 95.1668 39.1619C94.6827 39.7164 94.0256 39.9937 93.1957 39.9937C92.3657 39.9937 91.7087 39.7164 91.2246 39.1619C90.7404 38.6074 90.4984 37.845 90.4984 36.9093C90.4984 35.9389 90.7404 35.2111 91.2246 34.6219C91.7087 34.0674 92.3657 33.7902 93.1957 33.7902C94.0256 33.7902 94.6827 34.0674 95.1668 34.6219C95.6509 35.2111 95.893 35.9389 95.893 36.9093Z" fill="#191919"/>
<path d="M106.751 34.8299H103.708V39.8205H102.705V33.9635H106.751V34.8299Z" fill="#191919"/>
<path d="M117.195 36.8399C117.195 36.1122 117.091 35.5923 116.814 35.2457C116.572 34.8992 116.192 34.7259 115.708 34.7259C115.431 34.7259 115.155 34.7952 114.843 34.8992C114.567 35.0031 114.29 35.1764 114.013 35.3844V38.7114C114.29 38.8154 114.532 38.9193 114.74 38.954C114.947 38.9887 115.155 39.0233 115.431 39.0233C115.985 39.0233 116.399 38.85 116.711 38.4688C117.057 38.1222 117.195 37.5677 117.195 36.8399ZM118.232 36.8399C118.232 37.3251 118.163 37.741 118.025 38.1569C117.886 38.5381 117.679 38.8847 117.437 39.1619C117.195 39.4045 116.918 39.6125 116.607 39.7511C116.296 39.8897 115.95 39.959 115.604 39.959C115.293 39.959 115.016 39.9244 114.774 39.8551C114.532 39.7858 114.29 39.6818 114.013 39.5432V42.0038H113.011V33.9634H114.013V34.5873C114.29 34.3793 114.567 34.1714 114.913 34.0328C115.224 33.8941 115.604 33.7902 115.95 33.7902C116.642 33.7902 117.195 34.0674 117.61 34.5873C118.025 35.1418 118.232 35.8696 118.232 36.8399Z" fill="#191919"/>
<path d="M128.607 38.3995V36.736C128.295 36.7706 127.95 36.7706 127.569 36.8053C127.154 36.8399 126.843 36.8746 126.601 36.9786C126.324 37.0479 126.082 37.1865 125.909 37.3598C125.736 37.5331 125.667 37.741 125.667 38.0529C125.667 38.3995 125.771 38.6421 125.978 38.8154C126.186 38.9887 126.497 39.058 126.912 39.058C127.258 39.058 127.569 38.9887 127.846 38.85C128.122 38.7461 128.365 38.5728 128.607 38.3995ZM129.609 39.8204H128.607V39.1966C128.537 39.2659 128.399 39.3352 128.261 39.4392C128.122 39.5432 127.984 39.6471 127.846 39.6818C127.673 39.7511 127.5 39.8204 127.293 39.8897C127.085 39.959 126.843 39.959 126.566 39.959C126.048 39.959 125.598 39.7858 125.218 39.4392C124.837 39.0926 124.664 38.6421 124.664 38.0876C124.664 37.637 124.768 37.2905 124.941 37.0132C125.114 36.736 125.391 36.528 125.736 36.3548C126.082 36.2161 126.532 36.1122 127.016 36.0428C127.5 35.9735 128.053 35.9389 128.607 35.9042V35.7656C128.607 35.523 128.572 35.3497 128.503 35.2111C128.434 35.0725 128.295 34.9338 128.157 34.8645C128.019 34.7952 127.846 34.7259 127.638 34.6912C127.431 34.6566 127.258 34.6566 127.016 34.6566C126.774 34.6566 126.463 34.6912 126.151 34.7605C125.84 34.8299 125.494 34.9338 125.148 35.0725H125.079V34.0674C125.287 33.9981 125.563 33.9634 125.909 33.8941C126.29 33.8248 126.635 33.7902 126.981 33.7902C127.396 33.7902 127.742 33.8248 128.053 33.8941C128.365 33.9634 128.607 34.1021 128.849 34.2407C129.091 34.414 129.229 34.6219 129.367 34.8645C129.471 35.1071 129.54 35.419 129.54 35.8349V39.8204H129.609Z" fill="#191919"/>
<path d="M139.845 38.8154V34.8992C139.707 34.8299 139.569 34.7952 139.43 34.7259C139.292 34.6913 139.119 34.6566 138.946 34.6566C138.462 34.6566 138.082 34.8299 137.805 35.2111C137.529 35.5923 137.39 36.1122 137.39 36.8746C137.39 37.5678 137.529 38.0876 137.771 38.4688C138.013 38.85 138.393 39.058 138.843 39.058C139.05 39.058 139.223 39.0233 139.361 38.9887C139.534 38.954 139.673 38.8847 139.845 38.8154ZM143.234 36.84C143.234 36.1815 143.131 35.6616 142.889 35.2458C142.646 34.8645 142.301 34.6566 141.817 34.6566C141.609 34.6566 141.471 34.6566 141.332 34.6913C141.194 34.7259 141.021 34.7952 140.814 34.8645V38.8154C140.987 38.8847 141.125 38.954 141.229 38.9887C141.332 39.0233 141.505 39.058 141.713 39.058C142.197 39.058 142.577 38.85 142.854 38.5035C143.131 38.1223 143.234 37.5678 143.234 36.84ZM144.272 36.736C144.272 37.2558 144.203 37.7064 144.064 38.1223C143.926 38.5381 143.753 38.85 143.511 39.1273C143.304 39.3699 143.061 39.5778 142.75 39.7165C142.474 39.8551 142.162 39.9244 141.851 39.9244C141.609 39.9244 141.402 39.8897 141.229 39.8204C141.056 39.7511 140.917 39.6471 140.779 39.5778V42.0038H139.776V39.5778C139.569 39.6818 139.396 39.7858 139.258 39.8204C139.119 39.8897 138.912 39.9244 138.601 39.9244C137.909 39.9244 137.39 39.6471 136.941 39.1273C136.526 38.6075 136.318 37.845 136.318 36.9093C136.318 36.4241 136.387 35.9735 136.526 35.5923C136.664 35.2111 136.837 34.8992 137.079 34.6219C137.286 34.3793 137.529 34.1714 137.84 34.0328C138.116 33.8942 138.428 33.8248 138.704 33.8248C138.912 33.8248 139.119 33.8595 139.292 33.9288C139.465 33.9981 139.638 34.0674 139.811 34.1714V31.6415H140.814V34.1714C140.987 34.0674 141.159 33.9981 141.367 33.9288C141.574 33.8595 141.782 33.8248 142.024 33.8248C142.716 33.8248 143.269 34.0674 143.649 34.6219C144.064 35.1418 144.272 35.8349 144.272 36.736Z" fill="#191919"/>
<path d="M156.029 39.8205H155.026V35.4191L151.983 39.8205H151.084V33.9635H152.087V38.2956L155.096 33.9635H156.029V39.8205Z" fill="#191919"/>
<path d="M166.784 36.736V34.7606H165.539C165.262 34.7606 165.089 34.7606 164.951 34.7952C164.847 34.8299 164.709 34.8646 164.571 34.9339C164.432 35.0032 164.329 35.1072 164.26 35.2458C164.19 35.3844 164.156 35.523 164.156 35.6617C164.156 35.8696 164.19 36.0082 164.225 36.1122C164.26 36.2162 164.329 36.3548 164.467 36.4588C164.605 36.5627 164.744 36.632 164.951 36.6667C165.124 36.7014 165.332 36.736 165.574 36.736H166.784ZM167.752 39.8205H166.749V37.4985H165.608L163.81 39.8205H162.634L164.605 37.3945C164.087 37.2559 163.741 37.0479 163.499 36.736C163.257 36.4588 163.153 36.0775 163.153 35.5923C163.153 35.2804 163.222 35.0032 163.36 34.7952C163.499 34.5873 163.672 34.414 163.879 34.2754C164.087 34.1368 164.329 34.0328 164.605 33.9981C164.882 33.9288 165.159 33.9288 165.504 33.9288H167.752V39.8205Z" fill="#191919"/>
<path d="M166.334 25.9232L167.614 29.2849H161.873L160.698 25.9232H166.334ZM164.432 21.9377H158.9L156.41 15.6995L153.782 22.2496H158.692L156.755 25.6113H152.433L150.946 29.3195H145.309L153.263 10.9515H159.66L164.432 21.9377ZM145.275 29.2849H138.462L132.583 22.5268H130.059V29.2849H124.491V10.9169H133.828C135.108 10.9169 136.18 10.9862 137.113 11.0902C138.047 11.2288 138.877 11.4714 139.672 11.8873C140.468 12.3031 141.125 12.823 141.609 13.4815C142.093 14.1399 142.335 14.9717 142.335 15.9421C142.335 17.2937 141.955 18.4027 141.229 19.2691C140.502 20.1355 139.43 20.8287 138.082 21.4178L145.275 29.2849ZM136.56 16.5312C136.56 16.0807 136.456 15.6995 136.249 15.3529C136.041 15.041 135.661 14.7638 135.108 14.5905C134.727 14.4518 134.312 14.3825 133.828 14.3479C133.344 14.3132 132.756 14.3132 132.099 14.3132H130.128V19.1998H131.823C132.687 19.1998 133.413 19.1651 134.001 19.0958C134.589 19.0265 135.073 18.8532 135.488 18.6106C135.869 18.368 136.145 18.0908 136.318 17.7789C136.491 17.467 136.56 17.0511 136.56 16.5312ZM120.653 14.4865H110.797V17.8828H113.045L115.085 21.4525H110.763V29.2849H105.195V10.9169H120.618V14.4865H120.653ZM99.8006 29.2849H94.3714V17.0511L85.4495 29.2849H80.1241V10.9169H85.5533V21.9723L93.8527 10.9169H99.8006V29.2849ZM54.9491 29.2849L54.9146 21.1406L60.5167 17.8828V25.7499H68.6432V10.9169H74.2107V25.7845L76.2164 29.2849H54.9491Z" fill="#191919"/>
</g>
</svg>
