<svg width="40" height="40" viewBox="0 0 40 40" fill="none" xmlns="http://www.w3.org/2000/svg">
<rect width="40" height="40" rx="20" fill="#5EBF1B"/>
<path d="M29.579 14.8548C29.719 14.3898 29.579 14.0488 28.917 14.0488H26.724C26.166 14.0488 25.911 14.3438 25.771 14.6678C25.771 14.6678 24.656 17.3868 23.076 19.1498C22.566 19.6628 22.333 19.8248 22.055 19.8248C21.916 19.8248 21.714 19.6628 21.714 19.1978V14.8548C21.714 14.2968 21.553 14.0488 21.088 14.0488H17.642C17.294 14.0488 17.084 14.3068 17.084 14.5528C17.084 15.0808 17.874 15.2028 17.955 16.6908V19.9188C17.955 20.6258 17.828 20.7548 17.548 20.7548C16.805 20.7548 14.997 18.0258 13.924 14.9018C13.715 14.2948 13.504 14.0498 12.944 14.0498H10.752C10.125 14.0498 10 14.3448 10 14.6688C10 15.2508 10.743 18.1308 13.461 21.9398C15.273 24.5408 17.824 25.9508 20.148 25.9508C21.541 25.9508 21.713 25.6378 21.713 25.0978V23.1318C21.713 22.5058 21.846 22.3798 22.287 22.3798C22.611 22.3798 23.169 22.5438 24.47 23.7968C25.956 25.2828 26.202 25.9498 27.037 25.9498H29.229C29.855 25.9498 30.168 25.6368 29.988 25.0188C29.791 24.4038 29.081 23.5088 28.139 22.4498C27.627 21.8458 26.862 21.1958 26.629 20.8708C26.304 20.4518 26.398 20.2668 26.629 19.8948C26.63 19.8958 29.301 16.1338 29.579 14.8548Z" fill="white"/>
</svg>
